<?xml version="1.0" standalone="no"?>
<!DOCTYPE svg PUBLIC "-//W3C//DTD SVG 20010904//EN"
 "http://www.w3.org/TR/2001/REC-SVG-20010904/DTD/svg10.dtd">
<svg version="1.0" xmlns="http://www.w3.org/2000/svg"
 width="1080.000000pt" height="1080.000000pt" viewBox="0 0 1080.000000 1080.000000"
 preserveAspectRatio="xMidYMid meet">
<metadata>
Created by potrace 1.14, written by Peter Selinger 2001-2017
</metadata>
<g transform="translate(0.000000,1080.000000) scale(0.100000,-0.100000)"
fill="#000000" stroke="none">
<path d="M5685 8953 c-97 -12 -194 -49 -305 -119 -30 -18 -63 -34 -72 -34 -9
0 -53 19 -98 43 l-82 42 -131 0 c-112 0 -143 -4 -202 -23 -107 -36 -193 -82
-251 -135 -48 -44 -57 -48 -126 -57 -226 -28 -497 -147 -707 -310 -43 -33 -85
-60 -94 -60 -19 0 -18 -3 -47 200 -37 261 -64 279 -304 200 -139 -47 -196 -85
-216 -145 -15 -46 -9 -62 79 -215 39 -68 71 -130 71 -137 0 -18 -23 -16 -118
12 -115 34 -232 48 -322 40 -68 -7 -77 -10 -110 -44 -42 -42 -173 -258 -195
-320 -19 -55 -19 -84 1 -122 34 -66 120 -73 424 -34 107 14 221 30 253 36 44
8 62 7 73 -2 20 -17 5 -31 -145 -141 -191 -139 -275 -201 -281 -208 -3 -3 -61
-50 -130 -105 -198 -156 -408 -346 -493 -445 -29 -34 -37 -52 -37 -82 0 -90
30 -104 291 -138 47 -7 91 -15 98 -20 10 -6 2 -32 -37 -111 -100 -204 -131
-335 -139 -584 -6 -198 6 -297 53 -452 27 -88 94 -254 138 -340 44 -87 42 -90
-103 -232 -71 -69 -139 -142 -152 -162 -13 -19 -51 -76 -83 -125 -82 -122
-163 -297 -192 -412 -34 -135 -46 -255 -49 -487 -1 -110 -3 -207 -3 -216 -1
-9 -30 -54 -64 -100 -41 -56 -86 -136 -134 -241 -86 -187 -122 -243 -207 -325
-76 -72 -91 -110 -60 -152 27 -36 61 -51 165 -69 166 -29 333 14 552 142 240
141 268 148 571 150 l240 1 78 32 c118 50 197 106 364 261 84 77 177 159 208
182 97 71 242 134 400 174 76 19 317 40 347 30 13 -4 63 -45 113 -92 277 -263
675 -394 1075 -352 63 6 144 18 179 25 35 7 70 11 77 8 16 -6 48 -82 64 -152
23 -100 -3 -202 -113 -431 -140 -294 -190 -472 -189 -671 0 -101 4 -123 28
-185 47 -119 107 -199 186 -250 74 -47 148 -21 148 51 0 30 -10 45 -73 108
-97 95 -121 152 -121 287 0 106 12 171 56 310 37 116 78 197 90 177 4 -8 1
-70 -8 -138 -22 -167 -22 -356 0 -439 23 -88 49 -137 113 -211 30 -34 65 -85
78 -113 29 -62 40 -76 85 -103 87 -53 309 -58 414 -10 67 31 98 34 117 11 21
-26 86 -54 125 -54 20 0 81 14 136 32 96 30 100 31 134 15 51 -25 228 -23 355
3 l99 20 49 -35 c104 -75 251 -110 492 -119 184 -7 219 6 266 98 34 66 41 72
98 81 156 23 232 84 256 205 6 30 16 63 23 72 7 9 55 37 108 62 144 69 199
136 212 261 16 152 12 141 90 218 107 107 148 210 150 377 1 135 -51 258 -158
377 -58 63 -66 86 -46 138 24 63 42 235 41 387 -2 237 -40 361 -175 570 l-43
68 -6 142 c-6 135 -28 280 -61 393 -60 211 -180 400 -387 612 l-90 92 8 73
c11 102 7 388 -7 483 -14 95 -43 217 -71 298 -12 32 -19 64 -16 71 3 7 25 18
48 25 104 31 352 179 399 239 27 33 26 97 -1 142 -71 116 -199 276 -296 370
-59 58 -117 112 -128 120 -47 35 -235 159 -292 194 -41 24 -63 44 -63 56 0 17
9 18 119 17 132 -2 159 8 191 69 20 38 27 330 10 394 -17 62 -58 97 -124 105
-69 9 -351 -29 -458 -61 -42 -13 -12 28 77 105 52 45 102 96 111 114 35 66 12
144 -68 227 -18 19 -50 56 -71 82 -43 52 -90 73 -137 63 -42 -9 -184 -171
-300 -341 -50 -74 -98 -134 -106 -134 -16 0 -88 94 -141 185 -88 149 -190 248
-326 315 -127 62 -214 81 -411 87 l-169 6 -74 67 c-129 118 -255 162 -408 143z
m-2282 -398 c20 -28 87 -317 87 -378 0 -77 -49 -91 -98 -29 -66 83 -169 251
-181 294 -20 69 -13 90 39 116 62 31 129 30 153 -3z m4321 -126 c61 -38 75
-55 76 -92 0 -32 -3 -35 -175 -173 -71 -58 -154 -125 -183 -149 -29 -25 -60
-45 -68 -45 -27 0 -66 48 -59 73 12 41 256 395 289 420 18 13 66 -1 120 -34z
m-4724 -303 c36 -8 128 -43 204 -77 154 -71 183 -96 171 -148 -12 -54 -31 -58
-335 -65 -151 -3 -309 -9 -351 -12 -63 -5 -78 -3 -92 11 -23 23 -21 68 4 91
12 10 28 32 37 49 8 16 33 51 54 76 69 82 164 105 308 75z m5137 -160 c27 -23
27 -26 31 -152 5 -169 5 -169 -122 -144 -49 10 -135 21 -190 25 l-101 7 -72
71 c-40 39 -73 77 -73 83 0 17 60 36 220 73 74 17 162 37 195 45 82 19 80 19
112 -8z m-2832 -606 c49 -181 79 -354 100 -571 4 -30 15 -70 26 -88 30 -49 70
-61 210 -61 133 0 261 21 388 65 41 14 79 21 83 17 5 -5 17 -43 27 -84 37
-156 78 -183 235 -153 50 9 131 33 180 51 48 19 94 34 102 34 22 0 39 -37 79
-170 43 -145 67 -192 125 -239 23 -19 62 -56 87 -83 66 -68 112 -88 209 -88
146 0 173 -18 201 -132 32 -135 15 -261 -47 -347 -57 -78 -166 -106 -215 -56
-22 21 -25 33 -25 93 0 72 -10 92 -46 92 -44 0 -63 -30 -79 -119 -8 -47 -19
-99 -24 -115 -5 -17 -12 -56 -15 -86 -11 -100 -92 -300 -184 -455 -157 -264
-310 -386 -630 -504 -152 -56 -440 -121 -537 -121 -48 0 -79 -29 -79 -74 0
-82 70 -104 238 -76 61 10 114 17 118 14 4 -3 5 -78 2 -167 -8 -185 10 -331
52 -443 13 -35 24 -71 24 -79 0 -48 -264 -105 -492 -105 -180 0 -332 34 -493
109 -122 58 -188 98 -180 112 4 5 31 28 61 50 43 32 60 53 84 106 51 111 62
161 68 308 l7 140 54 7 c70 8 105 34 109 80 5 61 -19 79 -127 89 -149 15 -311
61 -436 124 -183 91 -368 252 -449 390 -89 151 -109 262 -126 670 -11 251 -18
314 -60 480 l-23 90 32 75 c92 218 85 205 112 203 13 -2 42 -5 64 -9 55 -8 83
16 140 119 26 45 62 103 81 130 40 55 55 58 140 26 76 -29 139 -21 214 25 68
42 241 230 316 344 61 91 156 279 198 387 48 124 45 120 61 104 8 -8 26 -57
40 -109z m-2250 60 c4 -6 -14 -44 -39 -85 -25 -42 -46 -79 -46 -84 0 -4 -17
-34 -38 -67 -69 -108 -139 -248 -157 -317 -10 -37 -23 -71 -30 -77 -15 -13
-341 7 -374 23 -59 29 -55 38 84 175 144 142 296 263 437 348 51 31 104 65
117 75 27 22 37 23 46 9z m5125 -150 c37 -28 76 -63 86 -78 9 -15 40 -54 69
-87 28 -33 62 -76 75 -95 14 -19 52 -69 86 -110 124 -151 149 -214 102 -256
-40 -35 -75 -53 -154 -79 -96 -31 -119 -31 -139 -1 -23 34 -109 279 -151 426
-19 69 -49 165 -65 213 -24 70 -28 92 -18 103 19 23 38 17 109 -36z m-66 -888
c56 -108 113 -349 122 -519 6 -107 5 -123 -8 -123 -37 0 -111 290 -146 570
-12 99 2 130 32 72z m-5571 -367 c5 -194 12 -269 38 -414 11 -68 12 -121 0
-121 -18 0 -30 28 -57 135 -26 101 -29 125 -29 290 0 147 4 193 19 252 11 40
21 72 22 70 1 -1 5 -96 7 -212z m1184 23 c26 -29 69 -154 82 -238 14 -83 14
-197 1 -205 -16 -10 -126 22 -167 48 -75 47 -152 155 -153 213 0 41 33 117 66
150 55 54 136 69 171 32z m-1235 -1484 c8 -207 6 -228 -42 -329 -52 -111 -269
-412 -309 -430 -23 -9 -26 2 -23 93 5 174 46 346 117 496 62 131 215 351 239
343 7 -2 13 -60 18 -173z m6443 -669 c58 -131 76 -291 51 -468 -18 -128 -29
-167 -47 -167 -15 0 -130 94 -186 152 -32 32 -43 53 -46 82 -6 56 9 110 41
155 16 22 48 88 71 148 23 59 46 118 51 131 16 37 39 26 65 -33z"/>
<path d="M6095 6218 c-95 -17 -188 -50 -211 -73 -46 -46 -19 -125 44 -125 15
0 55 9 90 20 119 37 178 42 267 20 142 -35 195 -22 195 49 0 52 -23 70 -128
98 -91 24 -170 28 -257 11z"/>
<path d="M4512 6191 c-93 -8 -115 -21 -115 -72 0 -23 8 -39 28 -57 29 -24 31
-25 160 -18 131 7 304 -9 369 -33 67 -26 117 -7 131 50 9 37 -33 83 -94 104
-96 31 -275 41 -479 26z"/>
<path d="M6116 5946 c-113 -41 -170 -190 -115 -302 23 -48 92 -100 146 -110
110 -21 212 86 213 222 0 49 -5 68 -29 105 -50 79 -136 113 -215 85z"/>
<path d="M4665 5928 c-102 -56 -140 -191 -82 -290 100 -171 357 -104 357 92 0
126 -79 210 -196 210 -32 0 -68 -6 -79 -12z"/>
<path d="M5409 5721 c-24 -19 -24 -20 -24 -254 -1 -150 3 -240 9 -249 6 -8 22
-20 34 -27 32 -17 75 1 92 37 18 39 26 194 18 339 -7 110 -11 130 -30 150 -26
28 -67 30 -99 4z"/>
<path d="M5330 5003 c-53 -20 -67 -83 -27 -121 31 -29 95 -30 131 -1 20 16 26
29 26 59 0 34 -4 42 -30 55 -29 15 -71 18 -100 8z"/>
</g>
</svg>
